<mxfile host="Electron" agent="Mozilla/5.0 (Windows NT 10.0; Win64; x64) AppleWebKit/537.36 (KHTML, like Gecko) draw.io/24.7.8 Chrome/128.0.6613.36 Electron/32.0.1 Safari/537.36" version="24.7.8">
  <diagram id="rb2dZTL9-1IaF7s8fdMN" name="Страница — 1">
    <mxGraphModel dx="1480" dy="877" grid="1" gridSize="10" guides="1" tooltips="1" connect="1" arrows="1" fold="1" page="1" pageScale="1" pageWidth="827" pageHeight="1169" math="0" shadow="0">
      <root>
        <mxCell id="0" />
        <mxCell id="1" parent="0" />
        <mxCell id="PKZJJF-yDV3Ia2JgcbxV-49" value="" style="rounded=0;whiteSpace=wrap;html=1;" vertex="1" parent="1">
          <mxGeometry x="120" y="210" width="660" height="770" as="geometry" />
        </mxCell>
        <mxCell id="PKZJJF-yDV3Ia2JgcbxV-1" value="Клиент" style="shape=umlActor;verticalLabelPosition=bottom;verticalAlign=top;html=1;outlineConnect=0;" vertex="1" parent="1">
          <mxGeometry x="30" y="290" width="30" height="60" as="geometry" />
        </mxCell>
        <mxCell id="PKZJJF-yDV3Ia2JgcbxV-2" value="Менеджер" style="shape=umlActor;verticalLabelPosition=bottom;verticalAlign=top;html=1;outlineConnect=0;" vertex="1" parent="1">
          <mxGeometry x="840" y="210" width="30" height="60" as="geometry" />
        </mxCell>
        <mxCell id="PKZJJF-yDV3Ia2JgcbxV-4" value="Модератор" style="shape=umlActor;verticalLabelPosition=bottom;verticalAlign=top;html=1;outlineConnect=0;" vertex="1" parent="1">
          <mxGeometry x="875" y="760" width="30" height="60" as="geometry" />
        </mxCell>
        <mxCell id="PKZJJF-yDV3Ia2JgcbxV-5" value="Работник склада" style="shape=umlActor;verticalLabelPosition=bottom;verticalAlign=top;html=1;outlineConnect=0;" vertex="1" parent="1">
          <mxGeometry x="865" y="620" width="30" height="60" as="geometry" />
        </mxCell>
        <mxCell id="PKZJJF-yDV3Ia2JgcbxV-7" value="Посмотреть список товаров" style="ellipse;whiteSpace=wrap;html=1;" vertex="1" parent="1">
          <mxGeometry x="170" y="260" width="120" height="80" as="geometry" />
        </mxCell>
        <mxCell id="PKZJJF-yDV3Ia2JgcbxV-8" value="Посмотреть товар" style="ellipse;whiteSpace=wrap;html=1;" vertex="1" parent="1">
          <mxGeometry x="170" y="370" width="120" height="80" as="geometry" />
        </mxCell>
        <mxCell id="PKZJJF-yDV3Ia2JgcbxV-9" value="Заказать товар" style="ellipse;whiteSpace=wrap;html=1;" vertex="1" parent="1">
          <mxGeometry x="380" y="340" width="120" height="80" as="geometry" />
        </mxCell>
        <mxCell id="PKZJJF-yDV3Ia2JgcbxV-10" value="Добавить в корзину" style="ellipse;whiteSpace=wrap;html=1;" vertex="1" parent="1">
          <mxGeometry x="385" y="440" width="120" height="80" as="geometry" />
        </mxCell>
        <mxCell id="PKZJJF-yDV3Ia2JgcbxV-11" value="Посмотреть корзину" style="ellipse;whiteSpace=wrap;html=1;" vertex="1" parent="1">
          <mxGeometry x="160" y="560" width="120" height="80" as="geometry" />
        </mxCell>
        <mxCell id="PKZJJF-yDV3Ia2JgcbxV-12" value="Удалить из товар из корзины" style="ellipse;whiteSpace=wrap;html=1;" vertex="1" parent="1">
          <mxGeometry x="370" y="625" width="120" height="80" as="geometry" />
        </mxCell>
        <mxCell id="PKZJJF-yDV3Ia2JgcbxV-13" value="Изменить количество товара" style="ellipse;whiteSpace=wrap;html=1;" vertex="1" parent="1">
          <mxGeometry x="360" y="710" width="120" height="80" as="geometry" />
        </mxCell>
        <mxCell id="PKZJJF-yDV3Ia2JgcbxV-14" value="" style="endArrow=none;html=1;rounded=0;entryX=0;entryY=0.5;entryDx=0;entryDy=0;" edge="1" parent="1" target="PKZJJF-yDV3Ia2JgcbxV-7">
          <mxGeometry width="50" height="50" relative="1" as="geometry">
            <mxPoint x="80" y="330" as="sourcePoint" />
            <mxPoint x="130" y="280" as="targetPoint" />
          </mxGeometry>
        </mxCell>
        <mxCell id="PKZJJF-yDV3Ia2JgcbxV-15" value="" style="endArrow=none;html=1;rounded=0;entryX=-0.008;entryY=0.362;entryDx=0;entryDy=0;entryPerimeter=0;" edge="1" parent="1" target="PKZJJF-yDV3Ia2JgcbxV-8">
          <mxGeometry width="50" height="50" relative="1" as="geometry">
            <mxPoint x="90" y="340" as="sourcePoint" />
            <mxPoint x="180" y="310" as="targetPoint" />
          </mxGeometry>
        </mxCell>
        <mxCell id="PKZJJF-yDV3Ia2JgcbxV-16" value="" style="endArrow=none;html=1;rounded=0;entryX=0;entryY=0;entryDx=0;entryDy=0;" edge="1" parent="1" target="PKZJJF-yDV3Ia2JgcbxV-11">
          <mxGeometry width="50" height="50" relative="1" as="geometry">
            <mxPoint x="80" y="350" as="sourcePoint" />
            <mxPoint x="179" y="409" as="targetPoint" />
          </mxGeometry>
        </mxCell>
        <mxCell id="PKZJJF-yDV3Ia2JgcbxV-17" value="Онлайн-магазин" style="text;html=1;align=center;verticalAlign=middle;whiteSpace=wrap;rounded=0;fontSize=20;" vertex="1" parent="1">
          <mxGeometry x="380" y="210" width="166" height="30" as="geometry" />
        </mxCell>
        <mxCell id="PKZJJF-yDV3Ia2JgcbxV-18" value="Extends" style="endArrow=openThin;endSize=16;endFill=0;html=1;rounded=0;entryX=1;entryY=0.5;entryDx=0;entryDy=0;dashed=1;" edge="1" parent="1" target="PKZJJF-yDV3Ia2JgcbxV-8">
          <mxGeometry width="160" relative="1" as="geometry">
            <mxPoint x="380" y="370" as="sourcePoint" />
            <mxPoint x="540" y="370" as="targetPoint" />
          </mxGeometry>
        </mxCell>
        <mxCell id="PKZJJF-yDV3Ia2JgcbxV-20" value="Extends" style="endArrow=openThin;endSize=16;endFill=0;html=1;rounded=0;entryX=0.932;entryY=0.702;entryDx=0;entryDy=0;dashed=1;exitX=0.018;exitY=0.337;exitDx=0;exitDy=0;exitPerimeter=0;entryPerimeter=0;" edge="1" parent="1" source="PKZJJF-yDV3Ia2JgcbxV-10" target="PKZJJF-yDV3Ia2JgcbxV-8">
          <mxGeometry width="160" relative="1" as="geometry">
            <mxPoint x="390" y="380" as="sourcePoint" />
            <mxPoint x="300" y="420" as="targetPoint" />
          </mxGeometry>
        </mxCell>
        <mxCell id="PKZJJF-yDV3Ia2JgcbxV-21" value="Extends" style="endArrow=openThin;endSize=16;endFill=0;html=1;rounded=0;entryX=0.992;entryY=0.657;entryDx=0;entryDy=0;dashed=1;exitX=0.028;exitY=0.285;exitDx=0;exitDy=0;exitPerimeter=0;entryPerimeter=0;" edge="1" parent="1" source="PKZJJF-yDV3Ia2JgcbxV-12" target="PKZJJF-yDV3Ia2JgcbxV-11">
          <mxGeometry width="160" relative="1" as="geometry">
            <mxPoint x="387" y="557" as="sourcePoint" />
            <mxPoint x="282" y="516" as="targetPoint" />
          </mxGeometry>
        </mxCell>
        <mxCell id="PKZJJF-yDV3Ia2JgcbxV-22" value="Extends" style="endArrow=openThin;endSize=16;endFill=0;html=1;rounded=0;entryX=1;entryY=1;entryDx=0;entryDy=0;dashed=1;exitX=0.052;exitY=0.332;exitDx=0;exitDy=0;exitPerimeter=0;" edge="1" parent="1" source="PKZJJF-yDV3Ia2JgcbxV-13" target="PKZJJF-yDV3Ia2JgcbxV-11">
          <mxGeometry width="160" relative="1" as="geometry">
            <mxPoint x="383" y="658" as="sourcePoint" />
            <mxPoint x="289" y="623" as="targetPoint" />
          </mxGeometry>
        </mxCell>
        <mxCell id="PKZJJF-yDV3Ia2JgcbxV-23" value="Добавить в избранное" style="ellipse;whiteSpace=wrap;html=1;" vertex="1" parent="1">
          <mxGeometry x="380" y="260" width="120" height="50" as="geometry" />
        </mxCell>
        <mxCell id="PKZJJF-yDV3Ia2JgcbxV-24" value="Extends" style="endArrow=openThin;endSize=16;endFill=0;html=1;rounded=0;dashed=1;" edge="1" parent="1" source="PKZJJF-yDV3Ia2JgcbxV-23" target="PKZJJF-yDV3Ia2JgcbxV-8">
          <mxGeometry width="160" relative="1" as="geometry">
            <mxPoint x="390" y="380" as="sourcePoint" />
            <mxPoint x="300" y="420" as="targetPoint" />
          </mxGeometry>
        </mxCell>
        <mxCell id="PKZJJF-yDV3Ia2JgcbxV-25" value="Сделать заказ" style="ellipse;whiteSpace=wrap;html=1;" vertex="1" parent="1">
          <mxGeometry x="360" y="540" width="120" height="60" as="geometry" />
        </mxCell>
        <mxCell id="PKZJJF-yDV3Ia2JgcbxV-26" value="Extends" style="endArrow=openThin;endSize=16;endFill=0;html=1;rounded=0;entryX=0.738;entryY=0.943;entryDx=0;entryDy=0;dashed=1;exitX=0;exitY=0;exitDx=0;exitDy=0;entryPerimeter=0;" edge="1" parent="1" source="PKZJJF-yDV3Ia2JgcbxV-25" target="PKZJJF-yDV3Ia2JgcbxV-8">
          <mxGeometry width="160" relative="1" as="geometry">
            <mxPoint x="397" y="477" as="sourcePoint" />
            <mxPoint x="292" y="436" as="targetPoint" />
          </mxGeometry>
        </mxCell>
        <mxCell id="PKZJJF-yDV3Ia2JgcbxV-27" value="Extends" style="endArrow=openThin;endSize=16;endFill=0;html=1;rounded=0;entryX=1;entryY=0;entryDx=0;entryDy=0;dashed=1;exitX=0;exitY=0.5;exitDx=0;exitDy=0;" edge="1" parent="1" source="PKZJJF-yDV3Ia2JgcbxV-25" target="PKZJJF-yDV3Ia2JgcbxV-11">
          <mxGeometry width="160" relative="1" as="geometry">
            <mxPoint x="388" y="559" as="sourcePoint" />
            <mxPoint x="269" y="455" as="targetPoint" />
          </mxGeometry>
        </mxCell>
        <mxCell id="PKZJJF-yDV3Ia2JgcbxV-28" value="Оставить отзыв на товар" style="ellipse;whiteSpace=wrap;html=1;" vertex="1" parent="1">
          <mxGeometry x="160" y="820" width="120" height="80" as="geometry" />
        </mxCell>
        <mxCell id="PKZJJF-yDV3Ia2JgcbxV-29" value="Оставить комментарий под чужим отзывом" style="ellipse;whiteSpace=wrap;html=1;" vertex="1" parent="1">
          <mxGeometry x="170" y="680" width="120" height="80" as="geometry" />
        </mxCell>
        <mxCell id="PKZJJF-yDV3Ia2JgcbxV-30" value="" style="endArrow=none;html=1;rounded=0;entryX=0;entryY=0;entryDx=0;entryDy=0;" edge="1" parent="1" target="PKZJJF-yDV3Ia2JgcbxV-28">
          <mxGeometry width="50" height="50" relative="1" as="geometry">
            <mxPoint x="50" y="378" as="sourcePoint" />
            <mxPoint x="148" y="600" as="targetPoint" />
          </mxGeometry>
        </mxCell>
        <mxCell id="PKZJJF-yDV3Ia2JgcbxV-31" value="" style="endArrow=none;html=1;rounded=0;entryX=0.078;entryY=0.217;entryDx=0;entryDy=0;entryPerimeter=0;" edge="1" parent="1" target="PKZJJF-yDV3Ia2JgcbxV-29">
          <mxGeometry width="50" height="50" relative="1" as="geometry">
            <mxPoint x="70" y="380" as="sourcePoint" />
            <mxPoint x="188" y="582" as="targetPoint" />
          </mxGeometry>
        </mxCell>
        <mxCell id="PKZJJF-yDV3Ia2JgcbxV-32" value="Добавить товар" style="ellipse;whiteSpace=wrap;html=1;" vertex="1" parent="1">
          <mxGeometry x="600" y="230" width="120" height="60" as="geometry" />
        </mxCell>
        <mxCell id="PKZJJF-yDV3Ia2JgcbxV-33" value="" style="endArrow=none;html=1;rounded=0;entryX=0;entryY=0.5;entryDx=0;entryDy=0;exitX=1;exitY=0.5;exitDx=0;exitDy=0;" edge="1" parent="1" source="PKZJJF-yDV3Ia2JgcbxV-32">
          <mxGeometry width="50" height="50" relative="1" as="geometry">
            <mxPoint x="750" y="280" as="sourcePoint" />
            <mxPoint x="840" y="250" as="targetPoint" />
          </mxGeometry>
        </mxCell>
        <mxCell id="PKZJJF-yDV3Ia2JgcbxV-34" value="Изменить цену товара" style="ellipse;whiteSpace=wrap;html=1;" vertex="1" parent="1">
          <mxGeometry x="530" y="370" width="120" height="60" as="geometry" />
        </mxCell>
        <mxCell id="PKZJJF-yDV3Ia2JgcbxV-35" value="" style="endArrow=none;html=1;rounded=0;exitX=0.992;exitY=0.297;exitDx=0;exitDy=0;exitPerimeter=0;" edge="1" parent="1" source="PKZJJF-yDV3Ia2JgcbxV-34">
          <mxGeometry width="50" height="50" relative="1" as="geometry">
            <mxPoint x="760" y="330" as="sourcePoint" />
            <mxPoint x="830" y="290" as="targetPoint" />
          </mxGeometry>
        </mxCell>
        <mxCell id="PKZJJF-yDV3Ia2JgcbxV-36" value="Проверить отзыв" style="ellipse;whiteSpace=wrap;html=1;" vertex="1" parent="1">
          <mxGeometry x="615" y="730" width="120" height="60" as="geometry" />
        </mxCell>
        <mxCell id="PKZJJF-yDV3Ia2JgcbxV-37" value="Удалить отзыв" style="ellipse;whiteSpace=wrap;html=1;" vertex="1" parent="1">
          <mxGeometry x="505" y="800" width="120" height="60" as="geometry" />
        </mxCell>
        <mxCell id="PKZJJF-yDV3Ia2JgcbxV-39" value="Закрыть ветку комментариев" style="ellipse;whiteSpace=wrap;html=1;" vertex="1" parent="1">
          <mxGeometry x="635" y="870" width="120" height="60" as="geometry" />
        </mxCell>
        <mxCell id="PKZJJF-yDV3Ia2JgcbxV-40" value="" style="endArrow=none;html=1;rounded=0;exitX=1;exitY=0.5;exitDx=0;exitDy=0;" edge="1" parent="1" source="PKZJJF-yDV3Ia2JgcbxV-36">
          <mxGeometry width="50" height="50" relative="1" as="geometry">
            <mxPoint x="734" y="598" as="sourcePoint" />
            <mxPoint x="865" y="790" as="targetPoint" />
          </mxGeometry>
        </mxCell>
        <mxCell id="PKZJJF-yDV3Ia2JgcbxV-41" value="" style="endArrow=none;html=1;rounded=0;exitX=1;exitY=0;exitDx=0;exitDy=0;" edge="1" parent="1" source="PKZJJF-yDV3Ia2JgcbxV-39">
          <mxGeometry width="50" height="50" relative="1" as="geometry">
            <mxPoint x="745" y="770" as="sourcePoint" />
            <mxPoint x="875" y="800" as="targetPoint" />
          </mxGeometry>
        </mxCell>
        <mxCell id="PKZJJF-yDV3Ia2JgcbxV-42" value="Extends" style="endArrow=openThin;endSize=16;endFill=0;html=1;rounded=0;entryX=0;entryY=0.5;entryDx=0;entryDy=0;dashed=1;exitX=0.5;exitY=0;exitDx=0;exitDy=0;" edge="1" parent="1" source="PKZJJF-yDV3Ia2JgcbxV-37" target="PKZJJF-yDV3Ia2JgcbxV-36">
          <mxGeometry width="160" relative="1" as="geometry">
            <mxPoint x="363" y="789" as="sourcePoint" />
            <mxPoint x="244" y="685" as="targetPoint" />
          </mxGeometry>
        </mxCell>
        <mxCell id="PKZJJF-yDV3Ia2JgcbxV-44" value="Зарегистрировать поставку" style="ellipse;whiteSpace=wrap;html=1;" vertex="1" parent="1">
          <mxGeometry x="615" y="550" width="120" height="60" as="geometry" />
        </mxCell>
        <mxCell id="PKZJJF-yDV3Ia2JgcbxV-45" value="Отгрузить товар" style="ellipse;whiteSpace=wrap;html=1;" vertex="1" parent="1">
          <mxGeometry x="615" y="640" width="120" height="60" as="geometry" />
        </mxCell>
        <mxCell id="PKZJJF-yDV3Ia2JgcbxV-47" value="" style="endArrow=none;html=1;rounded=0;exitX=1;exitY=0;exitDx=0;exitDy=0;" edge="1" parent="1">
          <mxGeometry width="50" height="50" relative="1" as="geometry">
            <mxPoint x="735" y="589" as="sourcePoint" />
            <mxPoint x="845" y="640" as="targetPoint" />
          </mxGeometry>
        </mxCell>
        <mxCell id="PKZJJF-yDV3Ia2JgcbxV-48" value="" style="endArrow=none;html=1;rounded=0;exitX=1;exitY=0.5;exitDx=0;exitDy=0;" edge="1" parent="1" source="PKZJJF-yDV3Ia2JgcbxV-45">
          <mxGeometry width="50" height="50" relative="1" as="geometry">
            <mxPoint x="745" y="599" as="sourcePoint" />
            <mxPoint x="845" y="650" as="targetPoint" />
          </mxGeometry>
        </mxCell>
        <mxCell id="PKZJJF-yDV3Ia2JgcbxV-50" value="Изменить статус заказа" style="ellipse;whiteSpace=wrap;html=1;" vertex="1" parent="1">
          <mxGeometry x="640" y="420" width="120" height="60" as="geometry" />
        </mxCell>
        <mxCell id="PKZJJF-yDV3Ia2JgcbxV-51" value="" style="endArrow=none;html=1;rounded=0;exitX=1;exitY=0.5;exitDx=0;exitDy=0;" edge="1" parent="1" source="PKZJJF-yDV3Ia2JgcbxV-50">
          <mxGeometry width="50" height="50" relative="1" as="geometry">
            <mxPoint x="759" y="368" as="sourcePoint" />
            <mxPoint x="840" y="300" as="targetPoint" />
          </mxGeometry>
        </mxCell>
        <mxCell id="PKZJJF-yDV3Ia2JgcbxV-52" value="" style="endArrow=none;html=1;rounded=0;exitX=1;exitY=1;exitDx=0;exitDy=0;" edge="1" parent="1" source="PKZJJF-yDV3Ia2JgcbxV-50">
          <mxGeometry width="50" height="50" relative="1" as="geometry">
            <mxPoint x="760" y="544" as="sourcePoint" />
            <mxPoint x="860" y="620" as="targetPoint" />
          </mxGeometry>
        </mxCell>
        <mxCell id="PKZJJF-yDV3Ia2JgcbxV-53" value="Ответить на отзыв&amp;nbsp;&lt;div&gt;о товаре&lt;/div&gt;" style="ellipse;whiteSpace=wrap;html=1;" vertex="1" parent="1">
          <mxGeometry x="530" y="300" width="120" height="60" as="geometry" />
        </mxCell>
        <mxCell id="PKZJJF-yDV3Ia2JgcbxV-54" value="" style="endArrow=none;html=1;rounded=0;exitX=1;exitY=0.5;exitDx=0;exitDy=0;" edge="1" parent="1" source="PKZJJF-yDV3Ia2JgcbxV-53">
          <mxGeometry width="50" height="50" relative="1" as="geometry">
            <mxPoint x="730" y="270" as="sourcePoint" />
            <mxPoint x="830" y="270" as="targetPoint" />
          </mxGeometry>
        </mxCell>
        <mxCell id="PKZJJF-yDV3Ia2JgcbxV-55" value="Курьер&lt;div&gt;&lt;br&gt;&lt;/div&gt;" style="shape=umlActor;verticalLabelPosition=bottom;verticalAlign=top;html=1;outlineConnect=0;" vertex="1" parent="1">
          <mxGeometry x="870" y="430" width="30" height="60" as="geometry" />
        </mxCell>
        <mxCell id="PKZJJF-yDV3Ia2JgcbxV-56" value="" style="endArrow=none;html=1;rounded=0;exitX=0.914;exitY=0.693;exitDx=0;exitDy=0;exitPerimeter=0;" edge="1" parent="1" source="PKZJJF-yDV3Ia2JgcbxV-50">
          <mxGeometry width="50" height="50" relative="1" as="geometry">
            <mxPoint x="770" y="460" as="sourcePoint" />
            <mxPoint x="860" y="470" as="targetPoint" />
          </mxGeometry>
        </mxCell>
        <mxCell id="PKZJJF-yDV3Ia2JgcbxV-57" value="Принять товар" style="ellipse;whiteSpace=wrap;html=1;" vertex="1" parent="1">
          <mxGeometry x="540" y="480" width="120" height="60" as="geometry" />
        </mxCell>
        <mxCell id="PKZJJF-yDV3Ia2JgcbxV-58" value="" style="endArrow=none;html=1;rounded=0;exitX=1;exitY=0.5;exitDx=0;exitDy=0;" edge="1" parent="1" source="PKZJJF-yDV3Ia2JgcbxV-57">
          <mxGeometry width="50" height="50" relative="1" as="geometry">
            <mxPoint x="760" y="472" as="sourcePoint" />
            <mxPoint x="870" y="480" as="targetPoint" />
          </mxGeometry>
        </mxCell>
        <mxCell id="PKZJJF-yDV3Ia2JgcbxV-59" value="Include" style="endArrow=openThin;endSize=16;endFill=0;html=1;rounded=0;entryX=0.075;entryY=0.264;entryDx=0;entryDy=0;dashed=1;exitX=0;exitY=1;exitDx=0;exitDy=0;entryPerimeter=0;" edge="1" parent="1" source="PKZJJF-yDV3Ia2JgcbxV-57" target="PKZJJF-yDV3Ia2JgcbxV-45">
          <mxGeometry width="160" relative="1" as="geometry">
            <mxPoint x="383" y="658" as="sourcePoint" />
            <mxPoint x="289" y="623" as="targetPoint" />
          </mxGeometry>
        </mxCell>
      </root>
    </mxGraphModel>
  </diagram>
</mxfile>
